<svg xmlns="http://www.w3.org/2000/svg" xmlns:xlink="http://www.w3.org/1999/xlink" viewBox="0 0 1931.94 1787"><defs><style>.cls-1,.cls-2{fill:none;}.cls-2{stroke:#7e8083;stroke-miterlimit:10;}.cls-3{fill:#f2f2f3;}.cls-4{opacity:0.2;fill:url(#New_Pattern_4);}</style><pattern id="New_Pattern_4" data-name="New Pattern 4" width="218.18" height="217.97" patternTransform="translate(-347.14 -3)" patternUnits="userSpaceOnUse" viewBox="0 0 218.18 217.97"><rect class="cls-1" width="218.18" height="217.97"/><path class="cls-2" d="M246.19,144.29a34,34,0,1,1-28.66-14.8h34.7v3.28A14,14,0,0,1,246.19,144.29ZM234.5,163.47a16.38,16.38,0,1,0-16.37,16.38A16.37,16.37,0,0,0,234.5,163.47Z"/><circle class="cls-2" cx="218.13" cy="163.48" r="7.19"/><path class="cls-2" d="M137.1,198.79A34,34,0,1,1,108.44,184h34.7v3.28A14,14,0,0,1,137.1,198.79ZM125.41,218A16.38,16.38,0,1,0,109,234.34,16.38,16.38,0,0,0,125.41,218Z"/><circle class="cls-2" cx="109.04" cy="217.97" r="7.19"/><path class="cls-2" d="M28,144.29a33.84,33.84,0,0,1,5.93,19.18,34,34,0,0,1-34,34,34,34,0,0,1-34-34,34,34,0,0,1,33.4-34h34.7v3.28A14,14,0,0,1,28,144.29ZM16.32,163.47A16.37,16.37,0,0,0-.06,147.1a16.37,16.37,0,0,0-16.37,16.37A16.37,16.37,0,0,0-.06,179.85,16.38,16.38,0,0,0,16.32,163.47Z"/><circle class="cls-2" cx="-0.06" cy="163.48" r="7.19"/><path class="cls-2" d="M246.19,35.31a34,34,0,1,1-28.66-14.8h34.7v3.28A14,14,0,0,1,246.19,35.31ZM234.5,54.49a16.38,16.38,0,1,0-16.37,16.37A16.37,16.37,0,0,0,234.5,54.49Z"/><circle class="cls-2" cx="218.13" cy="54.49" r="7.19"/><path class="cls-2" d="M137.1,89.8A34,34,0,1,1,108.44,75h34.7v3.28A14,14,0,0,1,137.1,89.8ZM125.41,109A16.38,16.38,0,1,0,109,125.36,16.37,16.37,0,0,0,125.41,109Z"/><circle class="cls-2" cx="109.04" cy="108.99" r="7.19"/><path class="cls-2" d="M28,35.31a33.81,33.81,0,0,1,5.93,19.18,34,34,0,0,1-34,34,34,34,0,0,1-34-34,34,34,0,0,1,33.4-34h34.7v3.28A14,14,0,0,1,28,35.31ZM16.32,54.49A16.37,16.37,0,0,0-.06,38.12,16.37,16.37,0,0,0-16.43,54.49,16.36,16.36,0,0,0-.06,70.86,16.37,16.37,0,0,0,16.32,54.49Z"/><circle class="cls-2" cx="-0.06" cy="54.49" r="7.19"/><path class="cls-2" d="M137.1-19.18A33.81,33.81,0,0,1,143,0a34,34,0,0,1-34,34,34,34,0,0,1-34-34,34,34,0,0,1,33.39-34h34.7v3.28A14,14,0,0,1,137.1-19.18ZM125.41,0A16.38,16.38,0,0,0,109-16.38,16.38,16.38,0,0,0,92.66,0,16.37,16.37,0,0,0,109,16.37,16.37,16.37,0,0,0,125.41,0Z"/><circle class="cls-2" cx="109.04" r="7.19"/></pattern></defs><g id="Layer_2" data-name="Layer 2"><g id="Layer_1-2" data-name="Layer 1"><rect class="cls-3" width="1931.94" height="1787"/><rect class="cls-4" width="1931.94" height="1787"/></g></g></svg>